<?xml version="1.0" encoding="utf-8"?>
<!-- Generator: Adobe Illustrator 15.0.0, SVG Export Plug-In  -->
<!DOCTYPE svg PUBLIC "-//W3C//DTD SVG 1.1//EN" "http://www.w3.org/Graphics/SVG/1.1/DTD/svg11.dtd" [
	<!ENTITY ns_flows "http://ns.adobe.com/Flows/1.0/">
]>
<svg version="1.1"
	 xmlns="http://www.w3.org/2000/svg" xmlns:xlink="http://www.w3.org/1999/xlink" xmlns:a="http://ns.adobe.com/AdobeSVGViewerExtensions/3.0/"
	 x="0px" y="0px" width="135px" height="40px" viewBox="0 0 135 40" enable-background="new 0 0 135 40" xml:space="preserve">
<defs>
</defs>
<g>
	<defs>
		<rect id="SVGID_1_" width="135" height="40"/>
	</defs>
	<clipPath id="SVGID_2_">
		<use xlink:href="#SVGID_1_"  overflow="visible"/>
	</clipPath>
	<path clip-path="url(#SVGID_2_)" d="M130.197,40H4.729C2.121,40,0,37.872,0,35.267V4.726C0,2.12,2.121,0,4.729,0h125.468
		C132.803,0,135,2.12,135,4.726v30.541C135,37.872,132.803,40,130.197,40"/>
	<path clip-path="url(#SVGID_2_)" d="M134.032,35.268c0,2.116-1.714,3.83-3.834,3.83H4.729c-2.119,0-3.839-1.714-3.839-3.83V4.726
		c0-2.116,1.72-3.835,3.839-3.835h125.468c2.121,0,3.834,1.719,3.834,3.835L134.032,35.268L134.032,35.268z"/>
	<path clip-path="url(#SVGID_2_)" fill="#FFFFFF" d="M30.128,19.784c-0.029-3.223,2.639-4.791,2.761-4.864
		c-1.511-2.203-3.853-2.505-4.676-2.528c-1.967-0.207-3.875,1.177-4.877,1.177c-1.022,0-2.565-1.157-4.228-1.122
		c-2.139,0.033-4.142,1.272-5.24,3.195c-2.265,3.923-0.575,9.688,1.595,12.859c1.086,1.553,2.355,3.287,4.016,3.226
		c1.625-0.067,2.232-1.036,4.193-1.036c1.943,0,2.513,1.036,4.207,0.997c1.744-0.028,2.842-1.56,3.89-3.127
		c1.255-1.78,1.759-3.533,1.779-3.623C33.507,24.924,30.161,23.647,30.128,19.784"/>
	<path clip-path="url(#SVGID_2_)" fill="#FFFFFF" d="M26.928,10.306c0.874-1.093,1.472-2.58,1.306-4.089
		c-1.265,0.056-2.848,0.874-3.758,1.944c-0.806,0.942-1.526,2.486-1.34,3.938C24.557,12.204,26.016,11.382,26.928,10.306"/>
	<path clip-path="url(#SVGID_2_)" fill="#FFFFFF" d="M53.646,31.504h-2.271l-1.244-3.909h-4.324l-1.185,3.909H42.41l4.284-13.308
		h2.646L53.646,31.504z M49.755,25.955L48.63,22.48c-0.119-0.355-0.343-1.191-0.672-2.507h-0.039
		c-0.132,0.566-0.343,1.402-0.632,2.507l-1.106,3.475H49.755z"/>
	<path clip-path="url(#SVGID_2_)" fill="#FFFFFF" d="M64.662,26.588c0,1.632-0.441,2.922-1.323,3.869
		c-0.79,0.843-1.77,1.264-2.942,1.264c-1.263,0-2.172-0.454-2.724-1.362h-0.04v5.055h-2.132V25.067c0-1.026-0.027-2.079-0.079-3.159
		h1.875l0.119,1.521h0.039c0.711-1.146,1.79-1.718,3.238-1.718c1.132,0,2.077,0.447,2.834,1.342
		C64.283,23.949,64.662,25.127,64.662,26.588 M62.49,26.666c0-0.934-0.21-1.704-0.632-2.31c-0.461-0.632-1.079-0.948-1.856-0.948
		c-0.526,0-1.004,0.176-1.431,0.523c-0.428,0.35-0.708,0.807-0.839,1.373c-0.066,0.264-0.099,0.48-0.099,0.65v1.6
		c0,0.698,0.214,1.287,0.642,1.768c0.427,0.48,0.984,0.721,1.668,0.721c0.803,0,1.428-0.31,1.876-0.928
		C62.266,28.496,62.49,27.68,62.49,26.666"/>
	<path clip-path="url(#SVGID_2_)" fill="#FFFFFF" d="M75.699,26.588c0,1.632-0.442,2.922-1.324,3.869
		c-0.789,0.843-1.77,1.264-2.941,1.264c-1.264,0-2.172-0.454-2.725-1.362H68.67v5.055h-2.132V25.067
		c0-1.026-0.027-2.079-0.079-3.159h1.875l0.119,1.521h0.039c0.711-1.146,1.789-1.718,3.238-1.718c1.131,0,2.076,0.447,2.834,1.342
		C75.32,23.949,75.699,25.127,75.699,26.588 M73.527,26.666c0-0.934-0.211-1.704-0.633-2.31c-0.461-0.632-1.078-0.948-1.855-0.948
		c-0.527,0-1.004,0.176-1.432,0.523c-0.428,0.35-0.706,0.807-0.838,1.373c-0.066,0.264-0.1,0.48-0.1,0.65v1.6
		c0,0.698,0.215,1.287,0.641,1.768c0.428,0.48,0.984,0.721,1.67,0.721c0.803,0,1.428-0.31,1.875-0.928
		C73.303,28.496,73.527,27.68,73.527,26.666"/>
	<path clip-path="url(#SVGID_2_)" fill="#FFFFFF" d="M88.039,27.772c0,1.132-0.393,2.053-1.182,2.764
		c-0.867,0.777-2.074,1.165-3.625,1.165c-1.432,0-2.58-0.276-3.449-0.829l0.494-1.777c0.936,0.566,1.963,0.85,3.082,0.85
		c0.803,0,1.428-0.182,1.877-0.544c0.448-0.362,0.67-0.848,0.67-1.454c0-0.54-0.184-0.995-0.553-1.364
		c-0.367-0.369-0.98-0.712-1.835-1.029c-2.331-0.869-3.495-2.142-3.495-3.816c0-1.094,0.408-1.991,1.225-2.69
		c0.814-0.698,1.9-1.048,3.258-1.048c1.211,0,2.217,0.211,3.02,0.632l-0.533,1.738c-0.75-0.408-1.598-0.613-2.547-0.613
		c-0.75,0-1.336,0.185-1.756,0.554c-0.355,0.329-0.533,0.729-0.533,1.204c0,0.526,0.203,0.961,0.612,1.303
		c0.354,0.316,1,0.658,1.935,1.027c1.145,0.461,1.986,1,2.527,1.618C87.77,26.081,88.039,26.852,88.039,27.772"/>
	<path clip-path="url(#SVGID_2_)" fill="#FFFFFF" d="M95.088,23.508h-2.35v4.659c0,1.185,0.414,1.777,1.244,1.777
		c0.381,0,0.697-0.033,0.947-0.099l0.059,1.619c-0.42,0.157-0.973,0.236-1.658,0.236c-0.842,0-1.5-0.257-1.975-0.77
		c-0.473-0.514-0.711-1.376-0.711-2.587v-4.837h-1.4v-1.6h1.4V20.15l2.094-0.631v2.389h2.35V23.508z"/>
	<path clip-path="url(#SVGID_2_)" fill="#FFFFFF" d="M105.691,26.627c0,1.475-0.422,2.686-1.264,3.633
		c-0.883,0.975-2.055,1.461-3.516,1.461c-1.408,0-2.529-0.467-3.365-1.401s-1.254-2.113-1.254-3.534c0-1.487,0.43-2.705,1.293-3.652
		c0.861-0.948,2.023-1.422,3.484-1.422c1.408,0,2.541,0.467,3.396,1.402C105.283,24.021,105.691,25.192,105.691,26.627
		 M103.479,26.696c0-0.885-0.189-1.644-0.572-2.277c-0.447-0.766-1.086-1.148-1.914-1.148c-0.857,0-1.508,0.383-1.955,1.148
		c-0.383,0.634-0.572,1.405-0.572,2.317c0,0.885,0.189,1.644,0.572,2.276c0.461,0.766,1.105,1.148,1.936,1.148
		c0.814,0,1.453-0.39,1.914-1.168C103.281,28.347,103.479,27.58,103.479,26.696"/>
	<path clip-path="url(#SVGID_2_)" fill="#FFFFFF" d="M112.621,23.783c-0.211-0.039-0.436-0.059-0.672-0.059
		c-0.75,0-1.33,0.283-1.738,0.85c-0.355,0.5-0.533,1.132-0.533,1.895v5.035h-2.131l0.02-6.574c0-1.106-0.027-2.113-0.08-3.021h1.857
		l0.078,1.836h0.059c0.225-0.631,0.58-1.139,1.066-1.52c0.475-0.343,0.988-0.514,1.541-0.514c0.197,0,0.375,0.014,0.533,0.039
		V23.783z"/>
	<path clip-path="url(#SVGID_2_)" fill="#FFFFFF" d="M122.156,26.252c0,0.382-0.025,0.704-0.078,0.967h-6.396
		c0.025,0.948,0.334,1.673,0.928,2.173c0.539,0.447,1.236,0.671,2.092,0.671c0.947,0,1.811-0.151,2.588-0.454l0.334,1.48
		c-0.908,0.396-1.98,0.593-3.217,0.593c-1.488,0-2.656-0.438-3.506-1.313c-0.848-0.875-1.273-2.05-1.273-3.524
		c0-1.447,0.395-2.652,1.185-3.613c0.829-1.026,1.948-1.539,3.356-1.539c1.383,0,2.43,0.513,3.141,1.539
		C121.873,24.047,122.156,25.055,122.156,26.252 M120.123,25.699c0.014-0.632-0.125-1.178-0.414-1.639
		c-0.369-0.593-0.936-0.889-1.699-0.889c-0.698,0-1.264,0.289-1.698,0.869c-0.354,0.461-0.565,1.014-0.63,1.658H120.123z"/>
	<path clip-path="url(#SVGID_2_)" fill="#FFFFFF" d="M43.424,7.273c0.227-0.136,0.483-0.25,0.771-0.344
		c0.288-0.094,0.625-0.141,1.014-0.141c0.627,0,1.121,0.149,1.484,0.446c0.362,0.298,0.543,0.699,0.543,1.203
		c0,0.401-0.122,0.737-0.364,1.009c-0.242,0.271-0.552,0.452-0.927,0.543v0.029c0.208,0.033,0.404,0.089,0.587,0.17
		c0.185,0.081,0.347,0.189,0.486,0.325c0.138,0.136,0.249,0.294,0.33,0.475c0.08,0.181,0.121,0.382,0.121,0.602
		c0,0.362-0.073,0.666-0.219,0.912c-0.145,0.245-0.336,0.446-0.572,0.601c-0.235,0.155-0.499,0.267-0.79,0.335
		c-0.291,0.067-0.582,0.102-0.873,0.102c-0.311,0-0.618-0.033-0.922-0.098c-0.304-0.064-0.585-0.171-0.844-0.32l0.262-0.805
		c0.168,0.084,0.385,0.165,0.65,0.243c0.265,0.077,0.534,0.116,0.805,0.116c0.446,0,0.791-0.1,1.033-0.3
		c0.242-0.201,0.364-0.469,0.364-0.806c0-0.226-0.048-0.412-0.145-0.557c-0.098-0.146-0.224-0.261-0.379-0.345
		c-0.155-0.084-0.328-0.142-0.519-0.174c-0.191-0.033-0.379-0.049-0.567-0.049h-0.436V9.649h0.436c0.2,0,0.386-0.025,0.558-0.077
		c0.171-0.051,0.32-0.124,0.446-0.218c0.126-0.094,0.225-0.206,0.296-0.335c0.07-0.129,0.106-0.275,0.106-0.436
		c0-0.291-0.103-0.519-0.31-0.684s-0.486-0.248-0.834-0.248c-0.239,0-0.479,0.039-0.718,0.117c-0.239,0.077-0.453,0.162-0.641,0.252
		L43.424,7.273z"/>
	<path clip-path="url(#SVGID_2_)" fill="#FFFFFF" d="M51.756,13.433l-0.078-0.543h-0.029c-0.316,0.433-0.775,0.65-1.377,0.65
		c-0.214,0-0.407-0.036-0.582-0.107c-0.175-0.071-0.327-0.168-0.456-0.291c-0.13-0.122-0.229-0.268-0.301-0.436
		c-0.071-0.168-0.106-0.353-0.106-0.553c0-0.588,0.239-1.03,0.718-1.324c0.478-0.294,1.157-0.442,2.037-0.442V10.3
		c0-0.621-0.326-0.931-0.978-0.931c-0.465,0-0.875,0.116-1.229,0.349l-0.213-0.689c0.432-0.271,0.971-0.407,1.617-0.407
		c1.233,0,1.85,0.65,1.85,1.95v1.736c0,0.485,0.023,0.86,0.068,1.125H51.756z M51.61,11.086c-0.585,0-1.021,0.074-1.307,0.223
		c-0.286,0.149-0.428,0.391-0.428,0.727c0,0.246,0.067,0.43,0.202,0.553c0.135,0.123,0.305,0.184,0.512,0.184
		c0.134,0,0.262-0.024,0.385-0.072c0.122-0.049,0.23-0.115,0.323-0.199c0.093-0.084,0.168-0.186,0.227-0.306
		c0.058-0.119,0.086-0.247,0.086-0.383V11.086z"/>
	<polygon clip-path="url(#SVGID_2_)" fill="#FFFFFF" points="57.683,8.719 57.683,9.582 55.723,9.582 55.723,13.433 54.676,13.433 
		54.676,8.719 	"/>
	<path clip-path="url(#SVGID_2_)" fill="#FFFFFF" d="M63.677,11.018c0,0.375-0.051,0.718-0.155,1.028
		c-0.103,0.311-0.247,0.576-0.432,0.796c-0.183,0.22-0.404,0.391-0.659,0.514c-0.256,0.122-0.538,0.184-0.848,0.184
		c-0.621,0-1.068-0.223-1.339-0.669h-0.02v2.483h-1.048v-5.083c0-0.252-0.003-0.506-0.009-0.761
		c-0.006-0.256-0.016-0.519-0.029-0.791h0.921l0.059,0.747h0.019c0.349-0.562,0.879-0.844,1.591-0.844
		c0.278,0,0.535,0.059,0.771,0.175c0.236,0.116,0.441,0.28,0.616,0.489c0.175,0.211,0.312,0.463,0.412,0.757
		C63.628,10.337,63.677,10.662,63.677,11.018 M62.611,11.057c0-0.233-0.028-0.448-0.083-0.645s-0.136-0.365-0.242-0.504
		c-0.107-0.14-0.237-0.249-0.388-0.33c-0.152-0.081-0.322-0.122-0.51-0.122c-0.148,0-0.294,0.033-0.436,0.098
		c-0.143,0.064-0.267,0.151-0.373,0.261c-0.108,0.11-0.193,0.243-0.257,0.398c-0.065,0.155-0.098,0.32-0.098,0.495v0.786
		c0,0.174,0.028,0.336,0.083,0.484c0.055,0.149,0.132,0.279,0.233,0.389c0.1,0.109,0.219,0.195,0.359,0.256
		c0.139,0.062,0.292,0.093,0.46,0.093c0.395,0,0.702-0.151,0.922-0.451C62.501,11.963,62.611,11.561,62.611,11.057"/>
	<path clip-path="url(#SVGID_2_)" fill="#FFFFFF" d="M69.305,8.719l-1.194,3.269c-0.283,0.776-0.56,1.411-0.829,1.906
		c-0.269,0.495-0.524,0.855-0.77,1.082c-0.363,0.323-0.748,0.52-1.156,0.591l-0.252-0.882c0.272-0.071,0.531-0.211,0.777-0.418
		c0.245-0.207,0.442-0.465,0.591-0.776c0.052-0.103,0.078-0.174,0.078-0.213c0-0.038-0.02-0.113-0.058-0.223l-1.708-4.336h1.154
		l0.893,2.629c0.046,0.123,0.091,0.262,0.136,0.417c0.046,0.155,0.093,0.327,0.145,0.514h0.021c0.032-0.103,0.067-0.234,0.105-0.393
		c0.039-0.158,0.092-0.341,0.155-0.548l0.796-2.619H69.305z"/>
	<path clip-path="url(#SVGID_2_)" fill="#FFFFFF" d="M71.119,10.678h0.484c0.355,0,0.631-0.064,0.824-0.194
		c0.193-0.129,0.291-0.287,0.291-0.475c0-0.194-0.082-0.35-0.248-0.466c-0.165-0.116-0.393-0.175-0.684-0.175
		c-0.188,0-0.377,0.031-0.566,0.093c-0.191,0.061-0.367,0.137-0.529,0.228L70.42,9.01c0.271-0.149,0.541-0.251,0.811-0.306
		c0.268-0.055,0.537-0.082,0.809-0.082c0.215,0,0.43,0.021,0.646,0.063c0.215,0.042,0.408,0.113,0.576,0.213
		c0.168,0.1,0.307,0.232,0.412,0.393c0.107,0.162,0.16,0.362,0.16,0.601c0,0.149-0.029,0.28-0.088,0.393
		c-0.057,0.113-0.135,0.214-0.232,0.301c-0.096,0.087-0.206,0.158-0.324,0.213c-0.119,0.055-0.242,0.096-0.363,0.122v0.028
		c0.154,0.02,0.305,0.059,0.451,0.117c0.145,0.058,0.275,0.134,0.393,0.228c0.115,0.094,0.209,0.207,0.281,0.34
		c0.07,0.132,0.105,0.282,0.105,0.451c0,0.278-0.066,0.51-0.203,0.698c-0.135,0.187-0.309,0.336-0.52,0.446
		c-0.209,0.11-0.441,0.189-0.694,0.238c-0.251,0.048-0.497,0.073-0.735,0.073c-0.291,0-0.58-0.031-0.863-0.092
		c-0.285-0.062-0.541-0.157-0.768-0.287l0.273-0.689c0.168,0.091,0.359,0.167,0.576,0.228c0.217,0.062,0.438,0.093,0.664,0.093
		c0.355,0,0.629-0.07,0.82-0.209c0.189-0.139,0.285-0.312,0.285-0.519c0-0.136-0.031-0.25-0.096-0.344
		c-0.064-0.094-0.157-0.17-0.271-0.228c-0.117-0.058-0.252-0.099-0.408-0.121c-0.154-0.023-0.324-0.034-0.504-0.034h-0.494V10.678z"
		/>
	<path clip-path="url(#SVGID_2_)" fill="#FFFFFF" d="M76.715,8.719v1.668c0,0.382-0.006,0.725-0.021,1.029
		c-0.013,0.304-0.028,0.624-0.048,0.96l0.02,0.019c0.123-0.245,0.244-0.486,0.362-0.722c0.122-0.236,0.243-0.477,0.366-0.723
		l1.164-2.231h1.357v4.714h-0.99v-1.668c0-0.349,0.01-0.698,0.025-1.047c0.016-0.35,0.033-0.702,0.053-1.058h-0.049
		c-0.109,0.291-0.22,0.543-0.33,0.757c-0.109,0.213-0.219,0.433-0.328,0.659c-0.201,0.388-0.4,0.776-0.598,1.164
		s-0.406,0.786-0.625,1.193h-1.357V8.719H76.715z"/>
	<polygon clip-path="url(#SVGID_2_)" fill="#FFFFFF" points="85.445,8.719 85.445,9.582 84.01,9.582 84.01,13.433 82.98,13.433 
		82.98,9.582 81.555,9.582 81.555,8.719 	"/>
	<path clip-path="url(#SVGID_2_)" fill="#FFFFFF" d="M90.789,10.853c0,0.091-0.004,0.177-0.01,0.257
		c-0.006,0.081-0.016,0.154-0.029,0.219h-3.143c0.014,0.446,0.154,0.79,0.422,1.033c0.268,0.242,0.623,0.364,1.063,0.364
		c0.459,0,0.883-0.075,1.271-0.224l0.164,0.728c-0.447,0.194-0.973,0.291-1.582,0.291c-0.367,0-0.697-0.057-0.988-0.17
		c-0.291-0.113-0.537-0.273-0.738-0.48c-0.199-0.207-0.354-0.456-0.461-0.747c-0.105-0.291-0.158-0.617-0.158-0.98
		c0-0.362,0.053-0.696,0.158-1.003c0.107-0.308,0.258-0.575,0.451-0.801c0.195-0.226,0.43-0.404,0.703-0.533
		c0.275-0.13,0.582-0.194,0.918-0.194c0.297,0,0.566,0.053,0.811,0.16c0.242,0.106,0.449,0.258,0.619,0.455
		c0.172,0.198,0.303,0.434,0.393,0.708C90.744,10.211,90.789,10.517,90.789,10.853 M89.789,10.582c0-0.369-0.088-0.668-0.266-0.897
		c-0.178-0.23-0.436-0.345-0.771-0.345c-0.305,0-0.563,0.117-0.774,0.349c-0.214,0.233-0.337,0.531-0.37,0.893H89.789z"/>
	<path clip-path="url(#SVGID_2_)" fill="#FFFFFF" d="M95.01,8.758c0.188-0.033,0.426-0.058,0.717-0.078
		c0.291-0.019,0.588-0.029,0.893-0.029c0.193,0,0.412,0.012,0.654,0.034s0.475,0.074,0.693,0.155
		c0.221,0.081,0.405,0.202,0.553,0.364c0.148,0.162,0.225,0.381,0.225,0.659c0,0.143-0.027,0.271-0.078,0.383
		c-0.053,0.114-0.121,0.212-0.209,0.296s-0.188,0.154-0.301,0.209c-0.113,0.055-0.23,0.096-0.354,0.121l0.01,0.029
		c0.342,0.058,0.621,0.181,0.834,0.369c0.213,0.187,0.32,0.446,0.32,0.776c0,0.33-0.092,0.592-0.271,0.785
		c-0.182,0.195-0.404,0.34-0.67,0.437s-0.545,0.159-0.84,0.185c-0.293,0.025-0.557,0.038-0.789,0.038
		c-0.26,0-0.514-0.006-0.762-0.019c-0.25-0.013-0.457-0.026-0.625-0.039V8.758z M96.018,10.64h0.533
		c0.162,0,0.316-0.012,0.461-0.035c0.146-0.022,0.273-0.058,0.383-0.106c0.111-0.049,0.195-0.113,0.258-0.194
		c0.061-0.081,0.092-0.18,0.092-0.296c0-0.214-0.088-0.37-0.268-0.471c-0.178-0.1-0.457-0.15-0.838-0.15
		c-0.109,0-0.205,0.004-0.287,0.01c-0.08,0.006-0.191,0.016-0.334,0.029V10.64z M96.018,12.725c0.129,0.013,0.238,0.022,0.324,0.029
		c0.088,0.007,0.189,0.01,0.307,0.01c0.143,0,0.287-0.01,0.436-0.029c0.148-0.019,0.285-0.056,0.408-0.111
		c0.123-0.054,0.221-0.128,0.295-0.222c0.074-0.093,0.113-0.217,0.113-0.371c0-0.269-0.121-0.456-0.359-0.558
		c-0.24-0.103-0.563-0.155-0.971-0.155h-0.553V12.725z"/>
</g>
</svg>
